<?xml version="1.0" encoding="iso-8859-1"?>
<!-- Generator: Adobe Illustrator 19.0.0, SVG Export Plug-In . SVG Version: 6.00 Build 0)  -->
<svg version="1.1" id="Layer_1" xmlns="http://www.w3.org/2000/svg" xmlns:xlink="http://www.w3.org/1999/xlink" x="0px" y="0px"
	 viewBox="0 0 512 512" style="enable-background:new 0 0 512 512;" xml:space="preserve">
<g>
	<g>
		<g>
			<path d="M344.335,0H8.511v512h235.37l100.454-108.824V0z M248.239,484.422v-76.526h70.64L248.239,484.422z M232.736,392.393
				v104.104H24.014V15.503h304.818v376.889H232.736z"/>
			<polygon points="352.6,15.503 368.872,15.503 368.872,496.497 272.174,496.497 272.174,512 384.375,512 384.375,0 352.6,0 			"/>
			<polygon points="393.188,15.503 409.461,15.503 409.461,496.497 392.041,496.497 392.041,512 424.964,512 424.964,0 393.188,0 
							"/>
			<polygon points="432.093,15.503 448.366,15.503 448.366,496.497 430.946,496.497 430.946,512 463.87,512 463.87,0 432.093,0 			
				"/>
			<polygon points="471.714,0 471.714,15.503 487.986,15.503 487.986,496.497 470.566,496.497 470.566,512 503.489,512 503.489,0 
							"/>
			<rect x="56.308" y="48.049" width="48.049" height="15.503"/>
			<rect x="56.308" y="112.108" width="88.089" height="15.503"/>
			<rect x="56.308" y="176.177" width="88.089" height="15.503"/>
			<rect x="56.308" y="144.148" width="184.187" height="15.503"/>
			<rect x="56.308" y="448.453" width="16.017" height="15.503"/>
			<rect x="88.337" y="448.453" width="16.017" height="15.503"/>
			<rect x="120.367" y="448.453" width="16.017" height="15.503"/>
		</g>
	</g>
</g>
<g>
</g>
<g>
</g>
<g>
</g>
<g>
</g>
<g>
</g>
<g>
</g>
<g>
</g>
<g>
</g>
<g>
</g>
<g>
</g>
<g>
</g>
<g>
</g>
<g>
</g>
<g>
</g>
<g>
</g>
</svg>
